<svg viewBox="255.00000000000003 609 987 279" xmlns:xlink="http://www.w3.org/1999/xlink" version="1.1" xmlns="http://www.w3.org/2000/svg" style="max-height: 500px" width="987" height="279"><rect fill="#ffffff" stroke="transparent" id="background" y="0" x="0" height="1500" width="1500"/><svg y="250" x="250" viewBox="0 0 583 162" data-id="lg_FLSkyPXQGTyXPUkG1s" data-version="2" height="1000" width="1000" xml:space="preserve"><rect fill="transparent" height="100%" width="100%"/><path d="M161.29 16.642h-52.233c-2.762 0-5.524 2.26-5.524 5.022v26.619c0 15.318 12.556 27.874 27.623 29.883v17.327c0 2.763 2.26 5.023 5.022 5.023s5.023-2.26 5.023-5.023V78.166c12.556-2.009 25.112-14.565 25.112-29.883V21.664a5.037 5.037 0 0 0-5.023-5.022m-5.022 10.044v13.31h-.251c-3.014 0-7.031-2.26-11.05-4.52-4.77-2.763-10.044-5.776-15.318-5.776-6.027-.251-11.049 2.009-16.071 3.516v-6.53zm-20.09 42.69h-2.009c-11.049 0-20.591-10.044-20.591-21.093V38.74c2.51-1.255 9.793-4.269 16.071-4.269 3.767 0 8.287 2.511 12.556 5.023 4.52 2.51 9.04 5.273 13.56 5.273h.252v3.516c.251 11.049-8.79 21.094-19.839 21.094m18.081 52.736h-23.103c-2.762 0-5.022 2.26-5.022 5.022s2.26 5.023 5.022 5.023h23.103c2.762 0 5.022-2.26 5.022-5.023s-2.26-5.022-5.022-5.022" fill="#ff7c75"/><circle transform="translate(121.11 41.75)scale(2.5112)" fill="#ff7c75" r="1"/><circle transform="translate(128.64 46.78)scale(2.5112)" fill="#ff7c75" r="1"/><path d="M136.178 114.076c2.763 0 5.023-2.009 5.023-4.771s-2.26-4.771-5.023-4.771h-17.83C115.839 81.933 96 81.43 93.489 81.43c-1.507 0-3.516.25-5.525.753 1.507-4.771 1.256-9.04 1.256-9.292 0-.753-.502-1.506-1.005-2.008-.753-.503-1.506-.503-2.26-.252-2.51 1.005-14.816 5.274-19.336 8.538-4.52-3.264-16.825-7.784-19.336-8.538-.753-.25-1.507-.25-2.26.252-.754.502-1.005 1.255-1.005 2.008 0 .252-.25 3.265.754 7.283-.503 0-1.256.251-2.01.251-13.057 0-21.344 9.292-22.851 24.359h-9.292c-2.762 0-5.022 2.009-5.022 4.771a5.037 5.037 0 0 0 5.022 5.022c4.52 0 8.538 2.26 10.799 6.278l9.793 16.825c1.005 1.507 2.511 2.512 4.27 2.512h75.335c1.758 0 3.516-1.005 4.27-2.512l9.793-16.573c2.762-4.52 6.78-7.032 11.3-7.032M83.945 76.66c-.25 3.014-1.506 7.534-4.52 10.798-3.013 3.014-5.775 4.27-8.287 4.772l5.274-5.274c1.004-1.004 1.004-2.511 0-3.515-1.005-1.005-2.511-1.005-3.516 0l-6.529 6.529c-.251-1.758.251-4.018 2.511-6.027 1.507-1.758 8.79-4.772 15.067-7.283m-20.843 6.53c-.502.753-.753 1.255-1.004 2.008l-4.771-3.264c-1.256-.754-2.763-.502-3.516.753-.753 1.256-.502 2.762.753 3.516l7.032 4.771c0 .502.25 1.005.25 1.507-2.51-.502-5.273-1.758-8.286-4.771-3.014-3.014-4.018-7.534-4.52-10.547 5.273 1.757 11.551 4.269 14.062 6.026m-20.591 2.008h3.264c1.005 2.01 2.01 4.018 3.767 5.776 5.274 5.525 10.798 6.53 14.565 6.53h2.009c.502 0 1.256.25 2.26.25 3.767 0 9.291-1.004 14.565-6.529.753-.753 1.256-1.506 2.009-2.26 3.013-1.507 6.529-2.009 8.538-2.009 3.013 0 17.327.502 19.587 18.08H24.681c1.256-13.057 7.785-19.838 17.83-19.838m74.08 30.386-8.287 14.063H38.493l-8.538-14.063c0-.502-.251-1.005-.503-1.005h87.892c-.25 0-.502.503-.753 1.005" fill="#ff7c75"/><path d="M40.753 88.964c-5.525 0-10.045 4.52-10.045 10.045 0 1.507 1.004 2.511 2.511 2.511s2.511-1.004 2.511-2.511a5.037 5.037 0 0 1 5.023-5.022c1.507 0 2.511-1.005 2.511-2.512s-1.004-2.51-2.511-2.51" fill="#ff7c75"/><path d="M221.615 26.56q0-2.01-.32-2.92-.31-.9-.31-1.66 0-1.04 1.11-1.73 1.11-.7 2.64-.7 3.53 0 5.72 1.84 2.18 1.84 2.18 4.47v46.39q2.7-.49 5.93-1.67 3.22-1.17 6.45-3.15 3.22-1.98 6.24-4.82 3.01-2.84 5.34-6.65 2.32-3.82 3.74-8.64 1.42-4.82 1.42-10.85 0-4.02-1.35-8.32-1.35-4.3-4.2-7.83-2.84-3.54-7.31-5.83t-10.71-2.29q-8.18 0-14.15 2.71-5.96 2.7-9.84 7.24-3.89 4.55-5.76 10.37-1.87 5.82-1.87 12.06 0 4.72.8 7.94.79 3.23 1.77 5.27.97 2.05 1.8 3.02.83.97.97 1.11 1.18-.35 1.66.28.49.62.49 1.66 0 .97-.66 2.91-.66 1.94-1.77 3.64-1.11 1.7-2.56 2.57-1.46.86-2.99-.31-.83-.77-2.56-2.78t-3.43-5.37q-1.7-3.36-3.02-8.11t-1.32-10.99q0-9.85 3.05-17.93 3.06-8.07 8.64-13.86 5.58-5.79 13.34-8.95 7.77-3.15 17.27-3.15 7.76 0 14.14 2.56 6.38 2.57 10.96 7.18 4.57 4.61 7.07 10.99t2.5 13.93q0 7.28-2.12 13.66-2.11 6.38-5.79 11.65-3.67 5.27-8.56 9.36-4.89 4.09-10.51 6.66 3.54 2.01 5.86 4.89 2.33 2.87 3.96 6.17 1.63 3.29 2.84 6.9 1.21 3.6 2.46 7.1 1.25 3.5 2.84 6.76 1.6 3.26 4.02 5.83.28.34.73.52l.9.34q.45.18.77.42.31.24.31.66 0 1.04-1.18 2.32-1.18 1.28-2.77 2.43-1.6 1.14-3.23 1.91-1.63.76-2.46.76-1.04 0-1.87-.83-3.47-3.96-5.41-8.22-1.94-4.26-3.26-8.46-1.32-4.19-2.42-8.15-1.11-3.95-2.88-7.28-1.77-3.32-4.61-5.82-2.85-2.5-7.7-3.81v19.69q0 1.8-1.18 2.53-1.18.73-2.77.73-1.25 0-2.5-.35t-2.25-.9q-1.01-.56-1.67-1.28-.65-.73-.65-1.56Z" fill="#111"/><rect transform="translate(234.73 63.53)" ry="0" rx="0" fill="none" y="-61.5" x="-38.48" height="123" width="76.97"/><path d="M309.945 59.63q0 3.95-1.35 8.11-1.35 4.16-4.02 7.87-2.67 3.71-6.59 6.66-3.92 2.94-9.05 4.47.69 1.8 1.84 3.43 1.14 1.63 2.74 2.81 1.59 1.18 3.71 1.87 2.11.7 4.89.7 4.16 0 7.14-1.56 2.98-1.56 5.02-4.13 2.05-2.57 3.3-5.75 1.25-3.19 1.87-6.45.48-2.36 1.98-3.16 1.49-.79 3.05-.38 1.56.42 2.7 1.77 1.14 1.35.94 3.22-.28 2.15-.94 4.93-.66 2.77-1.98 5.61-1.31 2.85-3.36 5.58-2.04 2.74-5.03 4.89-2.98 2.15-7 3.47-4.02 1.32-9.22 1.32-4.85 0-9.4-1.91-4.54-1.91-8.04-5.48-3.5-3.57-5.61-8.8-2.12-5.24-2.12-11.89 0-6.73 1.87-12.52 1.87-5.79 4.93-10.02 3.05-4.23 6.93-6.62 3.88-2.39 7.97-2.39 2.98 0 5.38 1.04 2.39 1.04 4.05 2.94 1.67 1.91 2.53 4.55.87 2.63.87 5.82m-22.88 16.78q0 .62.07 1.25.07.62.07 1.31 2.63-1.24 4.78-3.18 2.15-1.95 3.68-4.44 1.52-2.5 2.35-5.45.84-2.94.84-6.13 0-2.36-.8-3.68-.8-1.31-2.19-1.31-1.73 0-3.08 1.18-1.35 1.17-2.36 3.08-1 1.91-1.66 4.3-.66 2.39-1.08 4.82-.41 2.42-.55 4.61-.14 2.18-.07 3.64" fill="#111"/><rect transform="translate(302.31 75.6)" ry="0" rx="0" fill="none" y="-29.82" x="-26.4" height="59.63" width="52.8"/><path d="M342.115 104.91q-4.71 0-9.15-1.74-4.44-1.73-7.87-5.13-3.43-3.4-5.48-8.39-2.04-4.99-2.04-11.58 0-6.1 1.73-11.99 1.73-5.9 4.78-10.51 3.06-4.61 7.32-7.45t9.33-2.84q3.67 0 6.24 1.49 2.56 1.49 4.16 3.6 1.59 2.12 2.32 4.55.73 2.42.73 4.29 0 1.39-.73 2.5t-1.77 1.87q-1.04.76-2.29 1.15-1.25.38-2.22.31-.97-.07-1.56-.7-.59-.62-.38-1.87-.28-.9-.52-2.22-.24-1.31-.83-2.53-.59-1.21-1.63-2.08-1.04-.86-2.84-.86-1.94 0-3.78 1.83-1.84 1.84-3.26 5.03-1.42 3.19-2.29 7.42-.86 4.23-.86 9.01 0 4.23 1.07 7.49t3.02 5.48q1.94 2.22 4.61 3.36 2.67 1.15 5.79 1.15 4.16 0 7.24-1.56 3.09-1.56 5.24-4.13 2.15-2.57 3.46-5.75 1.32-3.19 1.95-6.45.48-2.36 1.97-3.16 1.49-.79 3.05-.38 1.56.42 2.71 1.77 1.14 1.35.93 3.22-.28 2.15-1 4.93-.73 2.77-2.12 5.61-1.38 2.85-3.5 5.58-2.11 2.74-5.16 4.89-3.06 2.15-7.11 3.47-4.06 1.32-9.26 1.32" fill="#111"/><rect transform="translate(344.47 75.6)" ry="0" rx="0" fill="none" y="-29.82" x="-26.4" height="59.63" width="52.8"/><path d="M369.085 32.66q-1.73 0-3.29-.7-1.56-.69-2.7-1.87-1.15-1.18-1.84-2.74-.69-1.56-.69-3.36 0-1.87.69-3.47.69-1.59 1.84-2.73 1.14-1.15 2.7-1.81 1.56-.66 3.29-.66 1.88 0 3.47.66 1.6.66 2.74 1.81 1.14 1.14 1.8 2.73.66 1.6.66 3.47 0 1.8-.66 3.36-.66 1.56-1.8 2.74-1.14 1.18-2.74 1.87-1.59.7-3.47.7m3.26 56.37q0 .48.07 1.56.07 1.07.42 2.18.34 1.11 1.11 1.94.76.84 2.15.84 2.08 0 3.64-1.53 1.56-1.52 2.7-3.81 1.14-2.29 1.91-4.96.76-2.67 1.25-5.03.41-2.15 1.28-3.12.86-.97 1.87-1.07 1.01-.11 2.01.52 1.01.62 1.8 1.63.8 1 1.18 2.25.38 1.25.11 2.36-.97 3.53-2.53 7.42-1.56 3.88-3.99 7.14t-5.83 5.41q-3.39 2.15-7.97 2.15-2.84 0-5.06-1.08-2.22-1.07-3.74-2.88-1.53-1.8-2.33-4.23-.79-2.42-.79-5.13V53.67q0-2.01-.32-2.92-.31-.9-.31-1.66 0-1.04 1.11-1.7 1.11-.66 2.64-.66 3.53 0 5.58 1.84 2.04 1.84 2.04 4.4Z" fill="#111"/><rect transform="translate(377.8 60.62)" ry="0" rx="0" fill="none" y="-44.8" x="-16.73" height="89.59" width="33.47"/><path d="M403.755 106.36q-2.63 0-4.3-.59-1.66-.59-2.56-1.56v46.18q0 1.94-.77 3.16-.76 1.21-1.9 1.9-1.15.7-2.46.94-1.32.24-2.36.24-2.15 0-2.71-1.11-.55-1.11-.55-2.7V53.67q0-1.53-.24-2.43-.25-.9-.49-1.42-.24-.52-.48-.83-.25-.32-.25-.73 0-.35.42-.63.42-.27 1.11-.48.69-.21 1.49-.31.8-.11 1.56-.11 3.4 0 5.44 1.84 2.05 1.84 2.19 4.26 2.22-3.25 5.34-5.4 3.12-2.15 7.62-2.15 4.16 0 7.25 1.94 3.08 1.94 5.13 5.3 2.04 3.37 3.05 7.94 1.01 4.58 1.01 9.85 0 5.96-1.04 11.4-1.04 5.45-2.64 9.33 3.54-.21 5.83-.97 2.28-.76 3.84-2.12 1.56-1.35 2.71-3.29 1.14-1.94 2.39-4.44.97-2.01 1.63-2.91.66-.9 1.63-.9.9 0 1.84.55.93.56 1.66 1.39.73.83 1.18 1.77.45.93.45 1.7 0 2.42-1.66 5.54-1.67 3.12-5.1 5.9-3.43 2.77-8.67 4.68-5.23 1.9-12.31 1.9-2.91 3.12-6.72 4.82-3.81 1.7-7.56 1.7m2.5-51.58q-1.53 0-2.95.9-1.42.9-2.67 2.46t-2.18 3.78q-.94 2.22-1.56 4.78v30.72q1.52-2.22 4.99-3.4 3.47-1.18 8.39-1.59 1.25-1.88 2.18-4.48.94-2.6 1.56-5.37.63-2.77.94-5.41.31-2.63.31-4.64 0-4.86-.73-8.25-.72-3.4-1.97-5.52-1.25-2.11-2.88-3.05-1.63-.93-3.43-.93" fill="#111"/><rect transform="translate(415.73 101.45)" ry="0" rx="0" fill="none" y="-55.67" x="-30.55" height="111.35" width="61.09"/><path d="M470.045 59.63q0 3.95-1.36 8.11-1.35 4.16-4.02 7.87-2.67 3.71-6.58 6.66-3.92 2.94-9.05 4.47.69 1.8 1.84 3.43 1.14 1.63 2.73 2.81 1.6 1.18 3.71 1.87 2.12.7 4.89.7 4.16 0 7.14-1.56 2.98-1.56 5.03-4.13 2.05-2.57 3.29-5.75 1.25-3.19 1.88-6.45.48-2.36 1.97-3.16 1.49-.79 3.05-.38 1.56.42 2.71 1.77 1.14 1.35.93 3.22-.27 2.15-.93 4.93-.66 2.77-1.98 5.61-1.32 2.85-3.36 5.58-2.05 2.74-5.03 4.89-2.98 2.15-7 3.47-4.02 1.32-9.22 1.32-4.86 0-9.4-1.91t-8.04-5.48q-3.5-3.57-5.62-8.8-2.11-5.24-2.11-11.89 0-6.73 1.87-12.52 1.87-5.79 4.92-10.02 3.05-4.23 6.94-6.62 3.88-2.39 7.97-2.39 2.98 0 5.37 1.04 2.4 1.04 4.06 2.94 1.66 1.91 2.53 4.55.87 2.63.87 5.82m-22.88 16.78q0 .62.07 1.25.06.62.06 1.31 2.64-1.24 4.79-3.18 2.15-1.95 3.67-4.44 1.53-2.5 2.36-5.45.83-2.94.83-6.13 0-2.36-.79-3.68-.8-1.31-2.19-1.31-1.73 0-3.08 1.18-1.36 1.17-2.36 3.08-1.01 1.91-1.67 4.3-.65 2.39-1.07 4.82-.42 2.42-.55 4.61-.14 2.18-.07 3.64" fill="#111"/><rect transform="translate(462.41 75.6)" ry="0" rx="0" fill="none" y="-29.82" x="-26.4" height="59.63" width="52.8"/><path d="M490.285 59.35v3.12q4.86 5.9 8.77 12.1 3.92 6.21 6.66 13.07 2.74 6.87 4.23 14.49 1.49 7.63 1.49 16.44 0 8.87-1.35 16.39-1.35 7.53-3.82 12.97-2.46 5.44-5.96 8.49t-7.73 3.05q-3.74 0-6.24-1.83-2.5-1.84-3.99-4.86-1.49-3.01-2.15-6.83-.65-3.81-.65-7.76V61.78q-.21-.21-.45-.49-.25-.27-.46-.55-1.66-1.66-3.01-3.09-1.35-1.42-1.35-3.15 0-1.04.76-2.12.76-1.07 2.49-1.28.35 0 .84-.07.48-.07 1.18-.07V10.61q0-1.53-.25-2.43-.24-.9-.48-1.42-.24-.52-.49-.83-.24-.31-.24-.66 0-.42.42-.69.41-.28 1.11-.49.69-.21 1.49-.31.79-.1 1.56-.1 3.53 0 5.58 1.83 2.04 1.84 2.04 4.41v40.21q2.5-.21 4.99-.38 2.5-.17 4.86-.35 2.36-.17 4.33-.24 1.98-.07 3.43-.07 2.36 0 4.09.9 1.74.9 1.74 3.12 0 .76-.17 2.22-.18 1.46-.49 2.98-.31 1.53-.83 2.64t-1.22 1.11q-.34 0-.52-.25-.17-.24-.55-.52-.38-.27-1.11-.55-.73-.28-2.18-.42Zm10.4 59.22q0-4.86-.66-10.02-.65-5.17-1.97-10.47-1.32-5.31-3.26-10.54-1.94-5.24-4.51-10.16v60.81q0 1.66.14 3.6.14 1.94.52 3.54.38 1.59 1.04 2.67.66 1.07 1.7 1.07 1.53 0 2.84-2.22 1.32-2.21 2.22-6.27.9-4.06 1.42-9.64.52-5.58.52-12.37" fill="#111"/><rect transform="translate(494.5 82.08)" ry="0" rx="0" fill="none" y="-77.89" x="-19.73" height="155.79" width="39.45"/><path d="M568.015 80.22q.62-2.22 1.45-3.22.84-1.01 1.95-1.01.83 0 1.73.52t1.63 1.36q.73.83 1.18 1.87.45 1.04.45 2.08v.55q0 .42-.14.83-1.8 6.17-4.2 10.92-2.39 4.75-5.13 8.5-2.74 3.74-5.65 6.69t-5.82 5.44v24.55q0 5.61-1.28 9.46-1.29 3.85-3.37 6.24t-4.71 3.43q-2.64 1.04-5.34 1.04-2.98 0-5.48-1.28-2.49-1.28-4.33-3.5-1.84-2.22-2.84-5.2-1.01-2.98-1.01-6.38 0-5.41 1.42-9.57t3.85-7.62q2.43-3.47 5.62-6.49 3.19-3.01 6.72-6.13V95.27q-2.56 4.3-5.96 7.04-3.4 2.73-7.98 2.73-3.53 0-6.34-1.45-2.81-1.46-4.75-4.13t-2.95-6.44q-1-3.78-1-8.43 0-5.62.8-11.3.79-5.69 1.76-10.26 1.11-5.34 2.57-10.33.35-.91.52-1.84.17-.94.8-1.7.62-.76 1.97-1.25 1.36-.48 4.2-.48 2.63 0 3.4.93.76.94.59 2.19-.18 1.24-.84 2.56-.66 1.32-.86 2.15-.97 3.95-1.74 7.21-.76 3.26-1.28 6.55-.52 3.3-.8 6.87-.27 3.57-.27 8.01 0 5.82 1.69 8.8 1.7 2.98 4.82 2.98 2.15 0 3.99-1.59 1.84-1.59 3.33-4.26t2.6-6.11q1.11-3.43 1.73-7.17V53.67q0-2.01-.28-2.92-.27-.9-.27-1.66 0-1.04 1.07-1.7 1.08-.66 2.6-.66 3.54 0 5.58 1.84 2.05 1.84 2.05 4.4v49.86q3.88-4.3 7.14-9.78 3.26-5.48 5.41-12.83m-27.25 70.31q1.66 0 2.5-1.39.83-1.38 1.14-3.22.31-1.84.31-3.71v-18.1q-3.47 3.47-5.58 7.84-2.11 4.37-2.11 10.74 0 3.33 1 5.59 1.01 2.25 2.74 2.25" fill="#111"/><rect transform="translate(546.57 103.6)" ry="0" rx="0" fill="none" y="-56.37" x="-30.34" height="112.74" width="60.67"/></svg></svg>